<?xml version="1.0" encoding="utf-8"?>
<!-- Generator: Adobe Illustrator 24.0.2, SVG Export Plug-In . SVG Version: 6.00 Build 0)  -->
<svg version="1.1" id="Layer_1" xmlns="http://www.w3.org/2000/svg" xmlns:xlink="http://www.w3.org/1999/xlink" x="0px" y="0px"
	 viewBox="0 0 119.46 63.8" style="enable-background:new 0 0 119.46 63.8;" xml:space="preserve">
<style type="text/css">
	.st0{fill:#454546;}
	.st1{fill:#BC2427;}
	.st2{fill:url(#SVGID_1_);}
	.st3{fill:url(#SVGID_2_);}
	.st4{fill:url(#SVGID_3_);}
	.st5{fill:#999999;}
</style>
<g>
	<g>
		<path class="st0" d="M2.16,30.47c0-1.75,0.85-2.67,2.58-2.67h2.54v24.82H2.16V30.47z"/>
		<path class="st0" d="M23.9,52.63c-1.62-0.11-2.43-0.88-2.43-2.41v-9.93c-0.11-2.01-1.21-2.99-3.38-2.99
			c-2.17,0-3.27,0.99-3.31,2.99v12.34H9.81V41.28c0-5.51,2.8-8.25,8.35-8.25c5.56,0,8.28,2.74,8.24,8.25v11.35H23.9z"/>
		<path class="st0" d="M54.92,53c-7.69,0-11.51-5.04-11.51-12.78c0-8,4.05-12.81,11.96-12.81c3.05,0,5.52,0.73,7.39,2.26
			c1.77,1.57,2.76,3.72,3.02,6.43h-3.09c-1.1,0-1.91-0.51-2.39-1.5c-0.85-1.79-2.5-2.7-4.93-2.7c-4.75,0-6.84,3.32-6.84,8.32
			c0,4.86,2.02,8.29,6.7,8.29c3.2,0,5.04-1.75,5.59-4.49h4.97C65.29,49.75,61.25,53,54.92,53z"/>
		<path class="st0" d="M86.19,42.67c0.15-6.24,3.49-9.35,10.01-9.35h0.7v5.04h-1.66c-2.72,0-4.08,1.42-4.08,4.23v10.04h-4.97V42.67z
			"/>
		<ellipse class="st1" cx="35.41" cy="46.51" rx="3.16" ry="3.14"/>
		<g>
			<g>
				<g>
					<g>
						<path class="st0" d="M104.07,59.74c0,1.62-0.81,2.43-2.43,2.43h-2.46V41.79c0.26-5.82,3.27-8.69,9.12-8.69
							c6.03,0,9.05,3.28,9.05,9.83c0,6.63-2.58,10.05-7.76,10.24c-2.43,0-4.27-0.99-5.52-3.02V59.74z M108.23,48.65
							c2.65,0,4.01-1.86,4.12-5.59c0-3.91-1.4-5.84-4.19-5.84c-2.8,0-4.12,1.93-4.08,5.84C104.22,46.79,105.58,48.65,108.23,48.65z"
							/>
					</g>
				</g>
			</g>
		</g>
		<g>
			
				<radialGradient id="SVGID_1_" cx="-2040.5459" cy="-8383.9092" r="12.7694" gradientTransform="matrix(0.5449 0 0 0.081 1187.8921 732.1052)" gradientUnits="userSpaceOnUse">
				<stop  offset="0" style="stop-color:#333333"/>
				<stop  offset="0.1113" style="stop-color:#3A3A39;stop-opacity:0.8887"/>
				<stop  offset="0.293" style="stop-color:#4E4B4B;stop-opacity:0.707"/>
				<stop  offset="0.5224" style="stop-color:#726E6E;stop-opacity:0.4776"/>
				<stop  offset="0.7877" style="stop-color:#B1ADAD;stop-opacity:0.2123"/>
				<stop  offset="1" style="stop-color:#FFFFFF;stop-opacity:0"/>
			</radialGradient>
			<ellipse class="st2" cx="75.92" cy="52.6" rx="6.96" ry="0.93"/>
			<g>
				
					<radialGradient id="SVGID_2_" cx="-37757.0273" cy="-5455.9697" r="87.0429" gradientTransform="matrix(0.0565 -0.0561 0.0678 0.0673 2580.3965 -1703.5267)" gradientUnits="userSpaceOnUse">
					<stop  offset="0" style="stop-color:#FFFFFF"/>
					<stop  offset="0.4304" style="stop-color:#FBFBFB"/>
					<stop  offset="0.5854" style="stop-color:#F2F1F0"/>
					<stop  offset="0.6959" style="stop-color:#E4E3E2"/>
					<stop  offset="0.7852" style="stop-color:#D3D1D1"/>
					<stop  offset="0.8618" style="stop-color:#BEBCBC"/>
					<stop  offset="0.9295" style="stop-color:#A7A5A5"/>
					<stop  offset="0.9893" style="stop-color:#8D8D8D"/>
					<stop  offset="1" style="stop-color:#888888"/>
				</radialGradient>
				<ellipse class="st3" cx="75.92" cy="45.8" rx="6.96" ry="6.9"/>
				
					<radialGradient id="SVGID_3_" cx="-37757.4414" cy="-5463.457" r="81.7926" gradientTransform="matrix(0.0565 -0.0561 0.0678 0.0673 2580.8945 -1703.64)" gradientUnits="userSpaceOnUse">
					<stop  offset="0" style="stop-color:#EB2227"/>
					<stop  offset="0.1249" style="stop-color:#E12327"/>
					<stop  offset="0.2951" style="stop-color:#CD2627"/>
					<stop  offset="0.4916" style="stop-color:#AF2726"/>
					<stop  offset="0.7076" style="stop-color:#882421"/>
					<stop  offset="0.9371" style="stop-color:#5D1A18"/>
					<stop  offset="1" style="stop-color:#511614"/>
				</radialGradient>
				<path class="st4" d="M77.4,40.32L77.4,40.32L77.4,40.32L77.4,40.32L77.4,40.32z M77.27,42.86
					C77.27,42.86,77.27,42.86,77.27,42.86L77.27,42.86C77.27,42.86,77.27,42.86,77.27,42.86z M76.95,42.88
					c0.29,0.16,0.3,0.17,0.31-0.02C77.17,42.83,77.07,42.84,76.95,42.88z M77.27,42.86C77.27,42.86,77.27,42.86,77.27,42.86
					L77.27,42.86L77.27,42.86z M78.49,39.69L78.49,39.69L78.49,39.69L78.49,39.69L78.49,39.69L78.49,39.69L78.49,39.69L78.49,39.69
					L78.49,39.69L78.49,39.69z M76.45,42.74c0.02,0.03,0.08,0.02,0.1-0.01c0.09-0.15-0.03-0.25-0.09-0.37
					C76.4,42.48,76.36,42.61,76.45,42.74z M77.4,40.32L77.4,40.32L77.4,40.32L77.4,40.32z M82.26,44.94L82.26,44.94
					C82.26,44.94,82.26,44.94,82.26,44.94C82.26,44.94,82.26,44.94,82.26,44.94z M74.42,41.37c0.16-0.06,0.32-0.12,0.32-0.34
					c0-0.1-0.03-0.12-0.12-0.12c-0.14,0.01-0.33,0.25-0.31,0.4C74.32,41.38,74.36,41.39,74.42,41.37z M74.71,40.75L74.71,40.75
					c0.04,0.09,0.1,0.17,0.2,0.2c0.05,0.02,0.13,0.07,0.06,0.13c-0.22,0.2-0.02,0.25,0.11,0.33c0.06-0.02,0.12-0.04,0.16-0.05
					c0.21-0.07,0.27-0.12,0.21-0.22c-0.03-0.04-0.07-0.09-0.14-0.15c-0.07-0.13-0.37-0.1-0.24-0.36c-0.01-0.04-0.03-0.09-0.04-0.13
					c-0.01-0.02-0.01-0.04-0.02-0.06c-0.08,0-0.1,0.06-0.12,0.12c-0.05,0-0.11-0.01-0.14,0.04c-0.05-0.02-0.11-0.08-0.15-0.01
					C74.58,40.68,74.67,40.71,74.71,40.75z M74.19,39.28c-0.01,0-0.01,0.01-0.02,0.01C74.18,39.29,74.19,39.29,74.19,39.28
					C74.2,39.29,74.2,39.29,74.19,39.28z M71.51,48.42c-0.19,0.05-0.27-0.14-0.42-0.18c-0.21,0.06-0.21,0.06-0.19-0.06
					c-0.2-0.11-0.13-0.36-0.25-0.51c0,0,0,0,0-0.01v0c-0.14-0.2-0.48-0.14-0.54-0.42c-0.01,0-0.02-0.01-0.03-0.01
					c-0.05-0.02-0.08-0.06-0.09-0.12c-0.06-0.08-0.14-0.12-0.24-0.14c-0.05,0.01-0.1,0.01-0.12-0.05v0c-0.05,0-0.1-0.01-0.16-0.01
					c-0.01,0-0.02,0-0.03,0c0,0,0.01,0,0.01-0.01c0,0-0.01,0-0.01,0.01l-0.01,0.01c0,0.02,0,0.03,0,0.05v0
					c-0.03,0.03-0.06,0.07-0.09,0.1c-0.01,0-0.02,0-0.02,0c-0.08-0.05-0.1-0.13-0.12-0.22v0c-0.04-0.17-0.04-0.35-0.18-0.49h-0.03
					c0.01,0.1,0.02,0.2,0.03,0.3c0.04,0.06,0.08,0.12,0.06,0.19v0c0.02,0,0.03,0.01,0.05,0.01v0c0.02,0.11,0.04,0.22,0.14,0.29v0
					c0.04,0.02,0.08,0.04,0.12,0.06c0,0.02-0.01,0.04-0.01,0.06c0,0.01,0,0.02,0.01,0.03c0.01,0.02,0.01,0.05,0.02,0.07v0
					c0,0,0,0.01,0,0.01l0.01,0c0.13,0.19-0.03,0.43,0.11,0.61c0,0.04,0,0.08,0,0.12l0,0l0,0c0.04,0.13,0.07,0.27,0.17,0.37
					c0.01,0.17,0.18,0.28,0.2,0.45c0,0.01,0,0.02,0,0.02c0.08,0.04,0.06,0.17,0.17,0.18l0,0c0.14,0.2,0.28,0.41,0.42,0.61
					c0.01,0.12,0.07,0.22,0.15,0.31l0,0c0.06,0.2,0.24,0.32,0.29,0.53c0,0,0,0,0,0.01l0,0c0.02,0.02,0.05,0.05,0.07,0.07
					c0.01,0.01,0.02,0.02,0.03,0.03c0.21,0.21,0.44,0.4,0.67,0.58c0.01,0,0.01-0.01,0.02-0.01l0,0c0-0.06-0.12-0.12-0.01-0.18
					c0-0.02-0.01-0.04-0.01-0.06c0-0.02-0.01-0.04-0.01-0.06c0.01,0,0.02,0,0.03-0.01c0.13-0.03,0.09-0.14,0.08-0.23l0,0v0
					c0.04-0.08,0.03-0.16,0-0.24l0,0l0,0c-0.01,0-0.03-0.01-0.04-0.01c0.01-0.02,0.01-0.03,0.02-0.05c0.02-0.04,0.03-0.08,0.05-0.11
					c0,0,0.01,0,0.01,0c0.04-0.01,0.07-0.01,0.1-0.02c0.01-0.01,0.03-0.02,0.05-0.02c0.06-0.01,0.14,0.03,0.18-0.06h0l0,0
					c0-0.07,0.01-0.15,0.01-0.22c-0.01-0.04-0.03-0.07-0.04-0.11c0-0.01,0-0.01-0.01-0.02c0.01-0.09,0-0.17-0.06-0.24c0,0,0,0,0,0v0
					c0-0.06,0-0.11-0.01-0.17c0,0,0-0.01,0-0.01l0,0c0.09-0.03,0.03-0.15,0.12-0.19c0.02-0.02,0.04-0.05,0.05-0.07
					c0-0.09,0.01-0.19,0.01-0.28C72.04,48.68,71.79,48.53,71.51,48.42z M74.72,40.33L74.72,40.33L74.72,40.33L74.72,40.33z
					 M81.16,48.42L81.16,48.42L81.16,48.42c-0.06-0.01-0.07,0.04-0.1,0.07c0,0,0,0-0.01,0c0,0,0,0.01,0,0.01
					c-0.06,0.23-0.31,0.31-0.42,0.49c0,0.05-0.01,0.11-0.01,0.16c0.02,0.08,0,0.13-0.06,0.18c0.01,0.09-0.1,0.1-0.12,0.17
					c0.05,0.18,0.12,0.22,0.23,0.15c0.03-0.02,0.05-0.04,0.09-0.07c0.02-0.11,0.1-0.18,0.18-0.25c0.01,0,0.02-0.01,0.03-0.01
					c0,0-0.02,0-0.03,0c-0.03-0.1,0.04-0.18,0.07-0.27C81.05,48.84,81.19,48.65,81.16,48.42L81.16,48.42z M74.18,39.29L74.18,39.29
					L74.18,39.29L74.18,39.29z M79.52,50.72C79.52,50.72,79.52,50.72,79.52,50.72C79.52,50.72,79.52,50.72,79.52,50.72L79.52,50.72
					L79.52,50.72L79.52,50.72L79.52,50.72z M73.63,40.26L73.63,40.26c0.14-0.06,0.28-0.12,0.42-0.19c0.02-0.02,0.04-0.03,0.06-0.05
					l0,0c0,0,0-0.01,0-0.01v0c0-0.08-0.05-0.11-0.11-0.13c-0.01,0-0.01,0-0.02-0.01c-0.13,0.05-0.27,0.12-0.41,0.15
					c-0.18,0.04-0.19,0.03-0.08,0.22l0.02,0C73.56,40.26,73.59,40.26,73.63,40.26L73.63,40.26z M71.51,48.39c0,0.01,0,0.02,0,0.02
					C71.51,48.41,71.51,48.4,71.51,48.39z M71.49,40.92c0,0,0.01,0,0.01,0L71.49,40.92C71.49,40.92,71.49,40.92,71.49,40.92z
					 M73.51,39.72c0-0.02,0.01-0.04,0.01-0.06c0.04,0,0.07,0.01,0.11,0.01c0.08-0.01,0.07-0.1,0.11-0.14c0-0.13,0.13-0.12,0.2-0.17
					c0.02-0.02,0.03-0.05,0.05-0.07v0c0.01,0,0.02,0,0.03,0c0,0,0,0.01,0,0.01c0.01,0,0.02,0,0.03-0.01c0,0,0,0,0,0l0.01,0v0
					c-0.08-0.06,0.16-0.1,0.08-0.16c-0.76,0.2-1.47,0.52-2.11,0.95c-0.01,0.1-0.04,0.21-0.09,0.24c-0.04,0.04-0.07,0.08-0.11,0.13
					c-0.03,0.07-0.16,0.04-0.14,0.15l0,0c-0.02,0.01-0.04,0.01-0.06,0.02c-0.02,0-0.03,0.01-0.05,0.01v0c0,0.02,0,0.04,0,0.05
					c0,0.02,0,0.05,0,0.07c0,0.04,0,0.07,0,0.11c-0.02,0.02-0.04,0.04-0.07,0.06c0,0.02-0.01,0.04-0.01,0.06
					c0.05,0.14,0.17,0.04,0.25,0.07c0.38-0.62,1-0.94,1.64-1.23c0,0,0.01,0,0.02,0C73.47,39.81,73.5,39.78,73.51,39.72z M69.8,48.96
					C69.8,48.96,69.8,48.97,69.8,48.96C69.81,48.96,69.8,48.96,69.8,48.96C69.8,48.96,69.8,48.96,69.8,48.96z M82.69,45.45
					L82.69,45.45c0.06,0.09,0.03,0.2,0.04,0.3c0,0.02,0,0.03,0.01,0.05c0,0.01-0.01,0.02-0.02,0.03c-0.02,0.09-0.01,0.17,0.07,0.22
					l0,0l0,0c-0.03,0.02-0.07,0.03-0.1,0.05c0-0.01,0-0.01-0.01-0.02c-0.02-0.06-0.04-0.13-0.06-0.19c0,0,0,0,0-0.01
					c-0.02-0.06-0.05-0.12-0.07-0.18c-0.06-0.22-0.11-0.44-0.11-0.66l0,0l0,0c-0.02-0.01-0.02-0.02-0.01-0.04
					c-0.01,0-0.02-0.01-0.02-0.02c-0.01,0-0.02-0.01-0.02-0.01v0c0,0,0-0.01,0-0.01c0.02-0.14-0.12-0.19-0.18-0.29v0
					c-0.01-0.04-0.01-0.09-0.02-0.13c0-0.01,0-0.02,0-0.04c-0.02,0-0.03,0-0.04-0.02c-0.01,0-0.01,0-0.02,0c-0.01,0-0.02,0-0.03,0
					c-0.01,0.02-0.02,0.02-0.03,0.03c0.01-0.02,0.01-0.03,0.02-0.04c-0.09-0.16-0.25-0.08-0.38-0.1c-0.02,0-0.03,0-0.04-0.01
					c-0.06,0.03-0.07-0.06-0.12-0.05c0-0.04-0.01-0.08-0.05-0.11c-0.01,0-0.01-0.01-0.02-0.01c-0.02,0.01-0.04,0.02-0.06,0.03
					c-0.09-0.02-0.17-0.05-0.23-0.13c0,0-0.01-0.01-0.01-0.01c-0.15-0.04-0.15-0.24-0.29-0.29c0,0-0.01,0-0.01-0.01c0,0,0,0,0,0
					c0,0,0,0,0,0.01c0,0-0.01,0-0.01,0c-0.05,0.05-0.05,0.11-0.06,0.17c0.02,0.02,0.04,0.04,0.05,0.06c0.09,0.1,0.17,0.2,0.2,0.34
					c0.01,0.01,0.03,0.03,0.04,0.04c0.12,0.12,0.24,0.24,0.32-0.07c0.02,0,0.04,0.01,0.05,0.02c0.03,0.02,0.03,0.07,0.06,0.1l0,0
					c0,0,0,0,0,0.01c0,0.05-0.01,0.11,0.06,0.13c0.17,0.01,0.17,0.12,0.13,0.24c-0.04,0.14-0.08,0.27-0.12,0.41
					c-0.01,0.01-0.01,0.03-0.02,0.04c-0.03,0.05-0.07,0.07-0.12,0.08c-0.01,0-0.03,0-0.04,0l0,0c0,0.02-0.01,0.04-0.01,0.06
					c-0.02,0.06-0.08,0.1-0.13,0.14c-0.01,0.01-0.03,0.02-0.04,0.04l0,0l-0.01,0c-0.01,0-0.02,0-0.02,0l-0.03,0
					c-0.25,0.23-0.36,0.26-0.46,0.15c-0.01-0.01-0.02-0.02-0.03-0.03c0.02-0.08-0.09-0.15-0.03-0.23c-0.07-0.14-0.2-0.25-0.23-0.42
					c0,0,0,0,0,0c-0.18-0.09-0.21-0.25-0.24-0.43v0c-0.01-0.01-0.02-0.02-0.04-0.04c-0.04-0.04-0.08-0.09-0.13-0.13
					c-0.01-0.01-0.01-0.01-0.02-0.02c-0.1-0.13-0.19-0.25-0.29-0.38c-0.01-0.03-0.01-0.07-0.02-0.1v0c-0.01,0-0.02,0.01-0.04,0.01
					c-0.05,0.01-0.1,0.02-0.14,0.03v0v0c0,0.01,0,0.02,0,0.03c0,0.03,0.02,0.06,0.04,0.08c0.01,0.01,0.02,0.02,0.03,0.02v0
					c0.04,0.08,0.07,0.16,0.11,0.24v0c0.02,0.06,0.11,0.08,0.08,0.16c0.07,0.09,0.15,0.17,0.22,0.26v0
					c0.11,0.12,0.09,0.28,0.15,0.41c0.19,0.08,0.15,0.32,0.3,0.42v0v0c0.09,0,0.12,0.09,0.18,0.13c0,0,0,0.01,0,0.01
					c0,0.01,0,0.01,0,0.02c0.1,0.08,0.11,0.22,0.18,0.33c0.03,0,0.07-0.01,0.1-0.01c0.11-0.14,0.32-0.06,0.43-0.18
					c0,0.02,0,0.03,0,0.05c0,0.25-0.11,0.47-0.18,0.7c0,0.02-0.01,0.03-0.01,0.05c-0.07,0.21-0.3,0.33-0.35,0.56
					c-0.19,0.16-0.28,0.38-0.39,0.6c0,0.01,0,0.03,0,0.04c0,0.03,0.01,0.06,0.01,0.09v0v0c0,0.02,0,0.03,0,0.05
					c0,0.08-0.03,0.16,0.02,0.22c0.01,0.01,0.02,0.03,0.04,0.04v0c0,0.04,0.02,0.09-0.04,0.11c0,0,0,0,0,0c0,0.04,0,0.08,0,0.12
					c0,0.1,0,0.2,0,0.3c-0.08,0.31-0.4,0.42-0.56,0.66v0c0,0.02,0.01,0.04,0.01,0.06c0,0,0,0,0,0c0.01,0.09-0.09,0.15-0.05,0.24
					c0.01,0.1-0.1,0.1-0.13,0.17c-0.03,0.02-0.07,0.04-0.1,0.05c-0.01,0-0.02,0.01-0.03,0.01c0,0.04,0,0.07,0,0.11v0
					c-0.03,0.07-0.06,0.13-0.1,0.2c-0.23,0.26-0.5,0.48-0.82,0.63c-0.02,0.01-0.03,0.02-0.05,0.02c-0.04,0.01-0.08,0.01-0.12,0.02
					c-0.04,0.01-0.07,0.02-0.11,0.03c-0.1,0.02-0.21,0.04-0.31,0.02c0-0.02-0.01-0.03-0.01-0.05c-0.01-0.06-0.03-0.13-0.04-0.19
					l-0.02,0.01c0,0-0.01-0.01-0.01-0.01c0-0.01-0.01-0.01-0.01-0.02c-0.01-0.02-0.02-0.04-0.03-0.06
					c-0.01-0.01-0.01-0.02-0.02-0.03c-0.03-0.04-0.06-0.08-0.1-0.13c0-0.01-0.01-0.02-0.01-0.03c-0.02-0.05-0.04-0.1-0.07-0.15
					c0-0.01,0-0.01,0-0.02c0-0.01,0-0.03,0-0.04c0-0.06,0-0.12,0-0.18v0c0,0-0.01-0.01-0.01-0.01c-0.04-0.04-0.07-0.07-0.11-0.11
					c0-0.01,0-0.02,0-0.03c0-0.01,0-0.01,0-0.02c-0.1-0.04-0.12-0.14-0.17-0.21l0,0c0-0.03,0-0.05,0-0.08v0c0,0,0,0,0,0l0,0
					c0.02-0.02,0.03-0.05,0.05-0.07c-0.02-0.22,0.18-0.34,0.23-0.52v0v0c0,0,0,0,0-0.01c-0.02-0.04-0.04-0.08-0.05-0.12c0,0,0,0,0,0
					c-0.11-0.08,0.02-0.24-0.11-0.32v0c0-0.03-0.01-0.06-0.01-0.09v0c-0.01,0-0.03,0-0.04-0.01c0,0-0.01,0-0.01,0
					c-0.02-0.04-0.03-0.08-0.05-0.12c0-0.01-0.01-0.02-0.01-0.02c-0.06-0.02-0.11-0.04-0.17-0.06c-0.01-0.04-0.01-0.07-0.02-0.11
					c-0.01-0.01-0.02-0.02-0.03-0.03c-0.09-0.07-0.19-0.14-0.09-0.28l0,0c0,0,0,0,0,0c0.02-0.13,0.04-0.27,0.06-0.4v0c0,0,0,0,0,0
					c-0.04-0.05-0.07-0.1-0.11-0.15v0c-0.02-0.01-0.03-0.02-0.04-0.02c-0.06-0.02-0.12,0-0.18,0.03c-0.17,0.07-0.29,0.02-0.33-0.16
					c-0.01-0.01-0.02-0.01-0.03-0.02c-0.15-0.07-0.29-0.02-0.44,0.02c0,0,0,0,0,0c-0.18,0.13-0.35,0.24-0.59,0.18
					c-0.08-0.02-0.19,0-0.26,0.04c-0.23,0.14-0.41,0.06-0.58-0.09c-0.01-0.01-0.02-0.02-0.03-0.03c-0.08-0.04-0.16-0.09-0.24-0.13v0
					c-0.01,0-0.01-0.01-0.02-0.01c-0.11-0.06-0.12-0.18-0.18-0.28c-0.01-0.01-0.02-0.01-0.03-0.02c-0.08-0.05-0.16-0.1-0.21-0.19
					c-0.01-0.01-0.03-0.02-0.04-0.03c-0.03-0.03-0.07-0.05-0.1-0.08c-0.08-0.04-0.12-0.1-0.09-0.19c-0.01-0.06-0.13-0.1-0.04-0.17
					c0.01,0,0.01-0.01,0.01-0.01v0c0.03-0.18,0.11-0.35,0.03-0.54c0,0,0-0.01,0-0.01c-0.09-0.23-0.1-0.45,0.07-0.65v0
					c0.01-0.01,0.02-0.03,0.03-0.04c0-0.01,0.01-0.01,0.01-0.02c0,0,0,0,0-0.01c0.03-0.12,0.05-0.24,0.18-0.3
					c0-0.01,0.01-0.01,0.01-0.02c0.02-0.03,0.04-0.07,0.06-0.1v0l0,0c0.11-0.1,0.23-0.2,0.34-0.31v0v0c0-0.02,0-0.03,0-0.05
					c0-0.18,0-0.37,0.18-0.48c0.15-0.09,0.2-0.23,0.27-0.37v0c0,0-0.01-0.01-0.01-0.01c-0.06-0.05-0.1-0.14-0.19-0.15
					c-0.26-0.03-0.28-0.17-0.21-0.35c0.01-0.02,0.01-0.04,0.02-0.05c0-0.09-0.01-0.19-0.01-0.28c0-0.01-0.01-0.02-0.01-0.03
					c-0.03-0.14,0.09-0.14,0.18-0.16c0.13-0.01,0.26-0.01,0.39-0.01c0.04,0,0.07-0.01,0.1-0.02c0.13-0.04,0.17-0.12,0.17-0.23
					c0-0.05-0.01-0.1-0.03-0.16c-0.11-0.05-0.18-0.17-0.33-0.14v0c-0.01-0.09-0.01-0.11,0.06-0.13c0.01,0,0.02,0,0.03,0
					c0.11,0.02,0.16-0.05,0.24-0.09c0.01,0,0.02-0.01,0.02-0.01c0.12-0.01,0.19-0.1,0.28-0.17c0.01-0.01,0.02-0.01,0.02-0.02v0
					c0.01-0.06,0.07-0.06,0.11-0.07c0-0.01,0-0.01,0-0.02l0,0c0-0.01,0-0.01,0-0.02c0.08-0.11,0.14-0.25,0.32-0.23
					c0.05-0.02,0.12,0,0.14-0.07v0c-0.04-0.12-0.24-0.24-0.02-0.37v0l0,0c0,0,0.01,0,0.01,0c0.03-0.01,0.07-0.02,0.1-0.04
					c0.03,0.09,0.06,0.18,0.01,0.27c0,0.01-0.01,0.02-0.01,0.02c0.04,0.03,0.08,0.06,0.11,0.08c0.01,0.01,0.02,0.02,0.04,0.03
					c0.03-0.01,0.05-0.03,0.08-0.04c0.01,0,0.02-0.01,0.02-0.01l0,0c0.04,0.01,0.1-0.01,0.12,0.05v0l0.01,0c0.01,0,0.02,0,0.02,0
					c0.01,0,0.01,0,0.02,0h0c0.14-0.03,0.28-0.06,0.42-0.09c0.04,0,0.07,0,0.11,0c0,0,0.01,0,0.01,0c0.04-0.04,0.11-0.05,0.12-0.12
					c-0.01,0-0.01-0.01-0.02-0.01c-0.05-0.04-0.04-0.1-0.03-0.15c0.05,0,0.1-0.01,0.15-0.01c0.02,0,0.03,0,0.05,0l0,0
					c-0.03-0.06-0.06-0.12-0.09-0.18c0.08-0.01,0.16-0.01,0.24-0.02c0.03,0.01,0.06,0.01,0.08,0.01c0.04-0.01,0.07-0.04,0.1-0.06
					c-0.11-0.1-0.23-0.05-0.36-0.04c-0.02,0-0.05,0-0.07,0c-0.08,0-0.16-0.01-0.24-0.01c-0.04-0.06-0.09-0.12-0.13-0.18
					c0-0.14,0.15-0.18,0.19-0.3c-0.03-0.01-0.05-0.02-0.08-0.02c-0.13-0.03-0.23,0-0.24,0.19c-0.05,0.03-0.14-0.01-0.18,0.07
					c-0.01,0.06-0.01,0.1,0.01,0.13c0.03,0.06,0.1,0.1,0.16,0.15c0.01,0.01,0.02,0.01,0.03,0.02c-0.02,0.03-0.04,0.06-0.06,0.08v0
					c-0.08,0.08,0.05,0.21-0.07,0.29c-0.02,0.02-0.04,0.03-0.06,0.05c-0.02,0-0.03,0.01-0.05,0.01c-0.06,0.01-0.12,0.03-0.18,0.04h0
					l0,0c0.01-0.15-0.11-0.21-0.2-0.29l0,0v0c-0.12-0.17-0.2-0.07-0.27,0.01c-0.01,0.01-0.03,0.02-0.04,0.03
					c-0.02,0.01-0.03,0.01-0.05,0.02c-0.04,0-0.08,0-0.12,0c-0.01-0.02-0.01-0.03-0.01-0.05c-0.04-0.03-0.06-0.07-0.07-0.12
					c-0.01-0.04-0.02-0.08-0.03-0.11c0-0.01-0.01-0.02-0.01-0.02l0,0l0,0c-0.06-0.08,0.03-0.12,0.05-0.18
					c-0.03,0.03-0.05,0.06-0.07,0.09c0.01-0.03,0.04-0.06,0.07-0.09c0.02-0.02,0.04-0.04,0.07-0.06c0.01,0,0.02,0,0.03,0
					c0.01,0,0.02,0,0.03,0.01c0.14-0.05,0.24-0.15,0.33-0.27c0.01-0.01,0.02-0.03,0.03-0.04c-0.01-0.02-0.01-0.04,0-0.06
					c0.09-0.05,0.15-0.12,0.21-0.2c0.01-0.01,0.02-0.03,0.03-0.04l0,0c0.02,0,0.04,0.01,0.06,0.01c0.04,0,0.08-0.01,0.13-0.01l0,0
					c0.16-0.06,0.32-0.09,0.48,0c0.12,0.03,0.24,0.05,0.36,0.08c0,0,0,0,0,0c0.18,0.05,0.36,0.11,0.54,0.16c0,0,0.01-0.01,0.01-0.01
					c-0.01-0.01-0.01-0.03-0.02-0.05c0.01,0.01,0.02,0.03,0.02,0.05c0,0-0.01,0-0.01,0l-0.01,0.01c0.01,0.01,0.02,0.01,0.03,0.02
					c0.01,0.01,0.02,0.01,0.03,0.02c0.01,0.01,0.02,0.01,0.03,0.02v0l0,0c0,0.03-0.01,0.04-0.03,0.05c-0.05,0.03-0.14,0-0.16,0.07
					c0.04,0.05,0.08,0.09,0.13,0.12c0.01,0.01,0.03,0.01,0.05,0.01c0.07-0.04,0.14-0.08,0.21-0.12c0,0,0.01-0.01,0.01-0.01
					c0,0,0.01,0,0.01,0l-0.01,0.03v0c0.05-0.02,0.11-0.04,0.13-0.1c0.04-0.01,0.08-0.02,0.12-0.03c0.02,0.01,0.04,0.01,0.06,0.02
					c0.2,0.05,0.42,0,0.62,0.1l0.02,0c1.86,1.03,3.2,2.89,3.5,5.08l-0.01,0c-0.04,0.08-0.08,0.16-0.11,0.24
					C82.69,45.22,82.69,45.33,82.69,45.45z M79.58,43.16L79.58,43.16c-0.07-0.03-0.04-0.2-0.13-0.18c-0.01,0-0.03,0.01-0.05,0.02
					c-0.15,0.09-0.24,0-0.36-0.02c-0.01,0-0.01,0-0.02,0c-0.05,0.01-0.11,0.02-0.16,0.02c-0.06-0.01-0.12-0.02-0.18-0.02
					c-0.04-0.08-0.11-0.14-0.18-0.19c0-0.04,0-0.08,0-0.11c-0.01-0.02-0.03-0.05-0.04-0.07c-0.02-0.03-0.04-0.06-0.05-0.09
					c0-0.01-0.01-0.01-0.01-0.02c-0.01-0.02-0.02-0.03-0.02-0.05c-0.05-0.03-0.1-0.02-0.14,0c-0.05,0.02-0.1,0.06-0.16,0.06
					c0,0.01,0,0.02,0,0.02c0.01,0.05,0.01,0.1,0.02,0.15c0.01,0.01,0.01,0.02,0.02,0.02c0.05,0.03,0.13,0.03,0.14,0.1
					c0,0.02,0,0.03-0.01,0.06l0,0l0,0l0,0l0,0c-0.02,0-0.04,0.02-0.05,0.04c-0.03,0.05-0.04,0.12-0.12,0.09
					c-0.12-0.16-0.25-0.32-0.37-0.47v0c-0.02-0.01-0.02-0.01-0.02-0.03c-0.01-0.01-0.03-0.03-0.04-0.04c0-0.01,0-0.01,0-0.02
					c0-0.02,0-0.05-0.01-0.07c0.01,0,0.02,0,0.03,0c-0.01-0.01-0.02-0.02-0.03-0.03c-0.02-0.02-0.04-0.03-0.05-0.05
					c-0.01,0-0.02-0.01-0.03-0.01c-0.28-0.08-0.48-0.3-0.74-0.4v0v0c-0.03,0.03-0.05,0.07-0.05,0.12c0,0.03,0,0.06,0,0.09
					c0.21,0.13,0.42,0.27,0.62,0.4c0.02,0.01,0.03,0.02,0.05,0.03c-0.06,0.09-0.12,0.12-0.23,0.06c-0.26-0.14-0.52-0.26-0.71-0.5
					c-0.19-0.01-0.33,0.22-0.54,0.13c-0.06,0.02-0.12,0.05-0.17,0.07c0.06,0.21-0.11,0.28-0.24,0.36c-0.09,0.09-0.01,0.21-0.06,0.3
					c-0.07,0.19-0.2,0.28-0.41,0.25l0,0c-0.05,0.06-0.15,0.07-0.16,0.17c0.11,0.12,0.26-0.01,0.38,0.07c0.1-0.06,0.2-0.12,0.31-0.17
					c0.17-0.1,0.34-0.16,0.54-0.13c0.02,0,0.04,0,0.06-0.01c0.11-0.1,0.25-0.03,0.37-0.06c0.25-0.16,0.29,0.14,0.27,0.2
					c-0.11,0.34,0.16,0.25,0.31,0.3c0.02,0.01,0.05,0.01,0.07,0.02c0.03,0,0.07,0.01,0.1,0.02c0.15,0,0.2,0.2,0.35,0.18v0v0
					c0.1,0,0.18,0.07,0.26,0.12c0.05-0.05,0.1-0.09,0.1-0.17c-0.05-0.06-0.07-0.13,0.01-0.18c0.13-0.08,0.25-0.06,0.36,0.05
					c0.07,0,0.15-0.01,0.2,0.06v0c0.16-0.03,0.3,0.05,0.45,0.06c0.09-0.08,0.19-0.07,0.29-0.05c0.02,0,0.05,0.01,0.08,0.01
					C79.63,43.55,79.53,43.33,79.58,43.16z M79.82,42.41c-0.04-0.07-0.08-0.14-0.12-0.2c-0.01,0-0.03,0-0.04,0
					c-0.12-0.02-0.17-0.13-0.26-0.19c0,0-0.01,0-0.01,0c-0.09,0.01-0.15-0.03-0.17-0.12c0.02,0,0.04,0,0.05,0l0,0
					c0.01-0.07,0.05-0.16-0.06-0.2c-0.02,0.01-0.04,0.01-0.07,0.02v0c-0.02,0.02-0.06,0.04-0.1,0.05c-0.04,0.02-0.08,0.04-0.08,0.08
					c0,0.03,0.02,0.06,0.07,0.11c-0.18,0.01-0.21-0.2-0.36-0.24v0c-0.05,0.06-0.1,0.12-0.14,0.17c-0.02,0.06-0.03,0.12-0.05,0.18
					c0,0.09-0.02,0.17,0.06,0.24c0.08,0.07,0.05,0.11-0.05,0.13c0.09,0.12,0.15,0.02,0.22-0.03c0.05-0.06,0.13-0.02,0.19-0.04
					c0.15-0.13,0.3-0.04,0.44,0.01c0.07,0.03,0.14,0.05,0.22,0.06C79.65,42.45,79.73,42.44,79.82,42.41L79.82,42.41z M70.72,41.48
					c0.01,0,0.02-0.01,0.02-0.01c0.02-0.01,0.03-0.02,0.03-0.05l0,0c0-0.01,0-0.01-0.01-0.02c0.08-0.11,0.19-0.21,0.19-0.37
					c0.01,0,0.01,0,0.02,0l0,0c0,0,0,0-0.01-0.01c0.12-0.02,0.21-0.09,0.24-0.21c0-0.01,0.01-0.02,0.01-0.03
					c-0.01-0.02-0.01-0.04-0.02-0.06v0v0c-0.01,0.01-0.02,0.01-0.03,0.01c-0.2,0.19-0.39,0.38-0.57,0.59
					C70.63,41.39,70.68,41.44,70.72,41.48z M70.91,48.18C70.9,48.18,70.9,48.18,70.91,48.18C70.9,48.18,70.91,48.18,70.91,48.18
					C70.91,48.18,70.91,48.18,70.91,48.18z M77.28,42.86c0.12-0.01,0.17-0.08,0.15-0.2C77.3,42.68,77.35,42.81,77.28,42.86z
					 M69.14,45.46c-0.01,0.03-0.01,0.06-0.01,0.08c0,0.02,0,0.03,0.01,0.04c0.02,0.02,0.03,0.04,0.05,0.06c0-0.03,0-0.07,0-0.1
					c0-0.12,0-0.24,0-0.36c0-0.04,0-0.09,0-0.13c0.04-0.08,0.08-0.17,0.12-0.25c0.04-0.19,0.09-0.39,0.13-0.58v0
					c0.01-0.01,0.01-0.02,0.02-0.03c0.06-0.09,0.06-0.22,0.16-0.28c0.07-0.14,0.08-0.3,0.18-0.43c0.01,0,0.02,0,0.02,0
					c0.04,0,0.08,0,0.11,0c0.02,0,0.03,0,0.05,0v0c0.02-0.03,0.04-0.07,0.05-0.1c0.01-0.02,0.02-0.04,0.03-0.06
					c0.01,0,0.03,0,0.04,0c0-0.02,0-0.04,0.01-0.06v0c0.01-0.01,0.01-0.01,0.02-0.02c0.03-0.03,0.06-0.07,0.09-0.1
					c-0.03,0.01-0.06,0.01-0.1,0.02c-0.02,0-0.04,0.01-0.07,0.01c0.01-0.11,0-0.23,0.05-0.33v0c0.02-0.01,0.03-0.02,0.05-0.03
					c0.07-0.05,0.14-0.12,0.23-0.12c0.01,0.02,0.02,0.03,0.03,0.04c-0.01,0.06-0.09,0.13-0.01,0.15c0.07,0.02,0.27,0.06,0.25-0.15
					c0.01-0.01,0.02-0.02,0.04-0.03c0,0,0,0,0.01,0c0,0,0,0,0-0.01c-0.01-0.02-0.01-0.03,0-0.04l0,0l0,0
					c-0.01-0.01-0.01-0.01-0.01-0.02c0-0.01,0-0.02,0-0.03c-0.03-0.01-0.06-0.01-0.1-0.02c-0.01,0-0.02-0.01-0.02-0.01
					c0,0,0,0.01,0.01,0.01c-0.02,0-0.03,0-0.05,0.01c-0.02,0-0.04,0.01-0.06,0.01v0c0-0.09,0.05-0.11,0.11-0.13
					c0.02-0.01,0.04-0.01,0.06-0.02l0,0c0.03-0.05,0.05-0.11,0.08-0.16v0c0.01-0.03,0-0.06-0.01-0.08c-0.03-0.06-0.1-0.1-0.13-0.16
					c0.03-0.06,0.05-0.12,0.08-0.18c0-0.01,0-0.02,0-0.02c0-0.02,0-0.03,0-0.05c0-0.01,0-0.03,0-0.04c-0.05,0.01-0.1,0.02-0.15,0.03
					c-0.01,0-0.01,0-0.02,0c-0.02-0.02-0.05-0.04-0.07-0.05l-0.05-0.05c-0.13,0.18-0.26,0.36-0.38,0.55c-0.06,0.1-0.12,0.2-0.18,0.3
					c-0.21,0.38-0.38,0.77-0.51,1.19c-0.02,0.06-0.03,0.11-0.05,0.17c-0.12,0.39-0.2,0.8-0.24,1.22c0,0.01,0,0.02,0,0.02
					c-0.04,0.08-0.03,0.16-0.04,0.24c0.01,0,0.01,0,0.02-0.01C69.2,45.25,69.16,45.36,69.14,45.46z M69.16,46.32l0.02,0.04l0.12-0.1
					h0.06l0.01-0.04l0.14,0.04h0.11l-0.05-0.08l-0.16-0.07l-0.15-0.08l-0.05-0.12l-0.07-0.07H69l0.08,0.09l0.1,0.02l0.01,0.1
					l0.08,0.04l0.03,0.07l-0.05,0.08L69.16,46.32z"/>
			</g>
		</g>
	</g>
</g>
<g>
	<path class="st5" d="M3.06,6.55h3.4c1.66,0,2.58,1.03,2.58,2.26s-0.93,2.25-2.58,2.25H4.27v2.83H3.06V6.55z M6.3,7.52H4.27v2.57
		H6.3c0.87,0,1.49-0.52,1.49-1.29C7.79,8.04,7.17,7.52,6.3,7.52z"/>
	<path class="st5" d="M14.01,6.43c2.41,0,4.07,1.62,4.07,3.8s-1.66,3.8-4.07,3.8c-2.41,0-4.07-1.62-4.07-3.8S11.6,6.43,14.01,6.43z
		 M14.01,7.41c-1.73,0-2.82,1.2-2.82,2.82c0,1.61,1.09,2.82,2.82,2.82c1.71,0,2.82-1.21,2.82-2.82C16.83,8.61,15.71,7.41,14.01,7.41
		z"/>
	<path class="st5" d="M24.04,8.22l-1.67,5.67h-1.29l-2.31-7.34h1.35l1.67,5.89l1.77-5.89h0.98l1.75,5.89l1.67-5.89h1.35l-2.3,7.34
		h-1.29L24.04,8.22z"/>
	<path class="st5" d="M30.34,6.55h5.42v0.97h-4.21v2.15h4.13v0.97h-4.13v2.29h4.21v0.97h-5.42V6.55z"/>
	<path class="st5" d="M40,11.06h-1.51v2.83h-1.21V6.55h3.4c1.54,0,2.59,0.9,2.59,2.26c0,1.32-0.98,2.02-2.01,2.15l2.07,2.94h-1.4
		L40,11.06z M40.52,7.52h-2.03v2.57h2.03c0.87,0,1.5-0.52,1.5-1.29C42.02,8.04,41.39,7.52,40.52,7.52z"/>
	<path class="st5" d="M44.75,6.55h5.42v0.97h-4.21v2.15h4.13v0.97h-4.13v2.29h4.21v0.97h-5.42V6.55z"/>
	<path class="st5" d="M51.68,6.55h2.88c2.52,0,4.19,1.56,4.19,3.67c0,2.12-1.67,3.66-4.19,3.66h-2.88V6.55z M54.56,12.92
		c1.86,0,2.94-1.21,2.94-2.7c0-1.51-1.04-2.71-2.94-2.71h-1.67v5.4H54.56z"/>
	<path class="st5" d="M63.34,6.55h3.79c1.44,0,2.28,0.8,2.28,1.87c0,0.92-0.67,1.54-1.4,1.68c0.86,0.12,1.56,0.91,1.56,1.8
		c0,1.16-0.85,1.98-2.34,1.98h-3.88V6.55z M66.89,9.66c0.81,0,1.26-0.46,1.26-1.07c0-0.6-0.45-1.08-1.26-1.08h-2.35v2.15H66.89z
		 M66.96,12.92c0.85,0,1.35-0.44,1.35-1.16c0-0.6-0.46-1.13-1.35-1.13h-2.41v2.29H66.96z"/>
	<path class="st5" d="M73.14,10.82l-3.16-4.27h1.39l2.37,3.28l2.35-3.28h1.4l-3.15,4.27v3.07h-1.21V10.82z"/>
</g>
</svg>
